<svg xmlns="http://www.w3.org/2000/svg" xmlns:xlink="http://www.w3.org/1999/xlink" width="500" zoomAndPan="magnify" viewBox="0 0 375 374.999991" height="500" preserveAspectRatio="xMidYMid meet" version="1.0"><defs><g/><clipPath id="6cf4b78e2d"><path d="M 129 68 L 246.351562 68 L 246.351562 235 L 129 235 Z M 129 68 " clip-rule="nonzero"/></clipPath><clipPath id="306f7f7c21"><path d="M 128.675781 62.355469 L 231 62.355469 L 231 240.855469 L 128.675781 240.855469 Z M 128.675781 62.355469 " clip-rule="nonzero"/></clipPath></defs><g clip-path="url(#6cf4b78e2d)"><path fill="#000000" d="M 188.308594 68.445312 C 170.480469 68.359375 152.507812 71.699219 134.574219 78.734375 L 129.527344 80.714844 L 129.527344 180.9375 C 129.527344 187.4375 132.429688 192.597656 136.136719 198.136719 C 139.847656 203.671875 144.746094 209.289062 150.273438 214.492188 C 161.328125 224.898438 174.050781 234.339844 187.910156 234.339844 C 201.769531 234.339844 214.492188 224.898438 225.546875 214.492188 C 231.074219 209.289062 235.972656 203.667969 239.679688 198.136719 C 243.386719 192.597656 246.289062 187.4375 246.289062 180.9375 L 246.289062 80.671875 L 241.1875 78.714844 C 223.828125 72.046875 206.140625 68.535156 188.308594 68.445312 Z M 188.257812 84.246094 C 202.335938 84.316406 216.332031 86.871094 230.378906 91.722656 L 230.378906 180.9375 C 230.378906 181.152344 229.304688 185.039062 226.460938 189.285156 C 223.617188 193.527344 219.394531 198.433594 214.640625 202.914062 C 205.125 211.871094 192.632812 218.4375 187.90625 218.4375 C 183.175781 218.4375 170.6875 211.871094 161.171875 202.914062 C 156.417969 198.433594 152.195312 193.53125 149.351562 189.285156 C 146.507812 185.039062 145.429688 181.15625 145.429688 180.9375 L 145.429688 91.6875 C 159.890625 86.613281 174.117188 84.171875 188.257812 84.246094 Z M 188.257812 84.246094 " fill-opacity="1" fill-rule="nonzero"/></g><path fill="#ffffff" d="M 188.304688 71.078125 C 170.816406 70.992188 153.1875 74.28125 135.542969 81.203125 L 132.175781 82.523438 L 132.175781 180.9375 C 132.175781 186.390625 134.773438 191.339844 138.339844 196.660156 C 141.902344 201.980469 146.691406 207.480469 152.089844 212.5625 C 162.886719 222.730469 175.570312 231.691406 187.910156 231.691406 C 200.246094 231.691406 212.933594 222.730469 223.730469 212.5625 C 229.128906 207.480469 233.917969 201.980469 237.480469 196.660156 C 241.042969 191.339844 243.644531 186.390625 243.644531 180.9375 L 243.644531 82.496094 L 240.238281 81.1875 C 223.144531 74.625 205.789062 71.164062 188.304688 71.078125 Z M 188.265625 81.613281 C 203.25 81.691406 218.136719 84.527344 233.035156 89.863281 L 233.035156 180.9375 C 233.035156 182.203125 231.652344 186.296875 228.667969 190.757812 C 225.679688 195.21875 221.34375 200.242188 216.457031 204.84375 C 206.6875 214.042969 194.160156 221.082031 187.910156 221.082031 C 181.660156 221.082031 169.128906 214.042969 159.359375 204.84375 C 154.472656 200.242188 150.140625 195.21875 147.152344 190.757812 C 144.160156 186.296875 142.78125 182.203125 142.78125 180.9375 L 142.78125 89.839844 C 158.113281 84.242188 173.242188 81.539062 188.265625 81.613281 Z M 188.265625 81.613281 " fill-opacity="1" fill-rule="nonzero"/><path fill="#000000" d="M 188.292969 73.714844 C 171.148438 73.625 153.867188 76.859375 136.507812 83.671875 L 134.824219 84.332031 L 134.824219 180.9375 C 134.824219 185.34375 137.121094 190.078125 140.539062 195.183594 C 143.960938 200.285156 148.632812 205.667969 153.90625 210.632812 C 164.445312 220.558594 177.09375 229.039062 187.90625 229.039062 C 198.71875 229.039062 211.367188 220.558594 221.90625 210.632812 C 227.175781 205.671875 231.851562 200.289062 235.273438 195.183594 C 238.691406 190.074219 240.984375 185.339844 240.984375 180.9375 L 240.984375 84.316406 L 239.285156 83.664062 C 222.457031 77.203125 205.441406 73.800781 188.292969 73.714844 Z M 188.277344 78.980469 C 204.171875 79.058594 219.953125 82.15625 235.6875 88 L 235.6875 180.9375 C 235.6875 183.25 234 187.558594 230.867188 192.234375 C 227.734375 196.910156 223.289062 202.050781 218.273438 206.769531 C 208.246094 216.210938 195.679688 223.734375 187.910156 223.734375 C 180.136719 223.734375 167.566406 216.210938 157.542969 206.769531 C 152.527344 202.050781 148.082031 196.910156 144.949219 192.234375 C 141.816406 187.558594 140.128906 183.253906 140.128906 180.9375 L 140.128906 87.988281 C 156.332031 81.847656 172.363281 78.898438 188.277344 78.980469 Z M 188.277344 78.980469 " fill-opacity="1" fill-rule="nonzero"/><path fill="#ff0000" d="M 137.476562 86.140625 L 137.476562 180.9375 C 137.476562 194.378906 169.320312 226.390625 187.90625 226.390625 C 206.492188 226.390625 238.332031 194.378906 238.332031 180.9375 L 238.332031 86.140625 C 205.207031 73.417969 171.613281 72.746094 137.476562 86.140625 Z M 137.476562 86.140625 " fill-opacity="1" fill-rule="nonzero"/><g clip-path="url(#306f7f7c21)"><path fill="#ffffff" d="M 179.40625 62.480469 C 178.164062 62.617188 176.957031 63.007812 175.855469 63.492188 C 173.65625 64.457031 171.808594 65.847656 170.6875 66.90625 C 169.785156 67.757812 169.351562 68.871094 168.839844 70.238281 C 168.328125 71.601562 167.863281 73.179688 167.457031 74.695312 C 166.789062 77.222656 166.472656 78.824219 166.332031 79.535156 C 166.246094 79.550781 166.253906 79.539062 166.164062 79.558594 C 165.832031 79.644531 165.460938 79.757812 165.058594 80.019531 C 164.882812 80.136719 164.691406 80.324219 164.523438 80.535156 C 164.046875 80.714844 161.863281 81.53125 155.875 83.082031 C 148.703125 84.941406 144.78125 89.617188 143.070312 94.386719 C 141.546875 98.640625 139.160156 102.734375 137.308594 104.96875 C 136.308594 106.175781 134.976562 107.78125 133.84375 109.390625 C 132.710938 111 131.707031 112.472656 131.570312 114.167969 C 131.425781 116.03125 130.964844 120.390625 130.882812 121.128906 C 130.742188 121.238281 130.726562 121.242188 130.550781 121.386719 C 130.09375 121.777344 129.566406 122.199219 129.15625 122.933594 C 128.8125 123.550781 128.832031 123.992188 128.828125 124.449219 C 128.824219 124.90625 128.867188 125.355469 128.914062 125.777344 C 128.992188 126.414062 129.066406 126.730469 129.117188 126.964844 C 129.050781 127.1875 128.964844 127.429688 128.855469 127.945312 C 128.777344 128.300781 128.707031 128.675781 128.691406 129.082031 C 128.683594 129.289062 128.683594 129.5 128.734375 129.769531 C 128.789062 130.039062 128.894531 130.441406 129.339844 130.796875 C 129.746094 131.117188 130.03125 131.140625 130.265625 131.171875 C 130.496094 131.203125 130.699219 131.207031 130.898438 131.199219 C 131.296875 131.1875 131.699219 131.140625 132.078125 131.082031 C 132.773438 130.980469 133.292969 130.859375 133.398438 130.835938 C 134.199219 130.847656 137.558594 130.726562 139.21875 127.402344 C 140.136719 125.5625 140.378906 123.386719 140.578125 121.429688 C 140.78125 119.472656 141.023438 117.648438 141.230469 117.210938 C 141.269531 117.125 141.898438 116.261719 142.714844 115.382812 C 143.535156 114.503906 144.5625 113.484375 145.570312 112.523438 C 146.828125 111.316406 147.285156 110.921875 148.015625 110.253906 C 148.304688 111.113281 148.601562 112.21875 148.738281 113.578125 C 149.050781 116.730469 149.601562 119.960938 149.691406 120.484375 C 149.550781 120.886719 149.300781 121.628906 149.109375 122.691406 C 148.851562 124.121094 148.605469 125.996094 149.925781 127.460938 C 150.71875 128.34375 151.484375 128.988281 152.070312 129.433594 C 151.789062 130.082031 151.480469 130.769531 150.898438 132.191406 C 150.496094 133.183594 150.101562 134.195312 149.804688 135.058594 C 149.65625 135.488281 149.535156 135.875 149.445312 136.230469 C 149.355469 136.582031 149.21875 136.773438 149.335938 137.445312 C 149.460938 138.132812 149.992188 138.546875 150.351562 138.722656 C 150.710938 138.898438 151.015625 138.960938 151.328125 139.003906 C 151.949219 139.09375 152.589844 139.089844 153.21875 139.0625 C 153.722656 139.042969 153.789062 139.015625 154.195312 138.96875 C 154.246094 139.585938 154.253906 139.847656 154.355469 140.808594 C 154.445312 141.664062 154.554688 142.554688 154.683594 143.332031 C 154.8125 144.109375 154.859375 144.660156 155.234375 145.359375 C 155.679688 146.1875 156.328125 146.625 156.464844 146.742188 C 156.597656 146.859375 156.484375 146.511719 156.484375 146.945312 C 156.484375 148.011719 156.796875 149.332031 157.300781 150.90625 C 157.808594 152.480469 158.523438 154.210938 159.449219 155.691406 C 160.90625 158.023438 162.539062 163.339844 167.21875 166.824219 C 171.046875 169.675781 179.195312 179.535156 181.589844 185.554688 C 181.589844 185.554688 181.589844 185.554688 181.589844 185.558594 C 181.605469 185.601562 182.628906 188.464844 183.8125 191.597656 C 184.410156 193.179688 185.042969 194.820312 185.605469 196.191406 C 186.171875 197.566406 186.597656 198.585938 187.046875 199.292969 C 187.496094 199.996094 188.3125 200.949219 189.550781 202.429688 C 190.789062 203.90625 192.386719 205.800781 194.132812 207.941406 C 197.585938 212.171875 201.621094 217.382812 204.589844 222.191406 C 204.636719 222.433594 204.785156 223.300781 205.164062 224.679688 C 205.585938 226.238281 206.183594 228.105469 207.144531 229.574219 C 208.109375 231.039062 210.203125 233.320312 212.554688 235.492188 C 213.734375 236.578125 214.960938 237.613281 216.132812 238.445312 C 217.300781 239.277344 218.367188 239.925781 219.523438 240.179688 C 221.460938 240.597656 223.480469 240.210938 225.191406 239.5 C 226.90625 238.785156 228.386719 237.839844 229.035156 236.253906 C 229.597656 234.875 229.332031 233.207031 228.367188 231.691406 C 227.402344 230.171875 225.777344 228.660156 223.339844 227.054688 C 221.207031 225.644531 219.976562 224.058594 218.542969 222.328125 C 217.136719 220.632812 215.503906 218.8125 212.8125 217.339844 C 212.804688 217.332031 212.195312 216.898438 211.039062 215.40625 C 209.875 213.902344 208.269531 211.402344 206.601562 207.503906 C 203.261719 199.683594 201.960938 194.410156 197.910156 188.835938 C 197.800781 188.511719 193.867188 176.449219 190.015625 167.851562 C 190.226562 167.449219 190.539062 166.855469 191.046875 165.816406 C 191.375 165.140625 191.699219 164.453125 191.945312 163.875 C 192.070312 163.582031 192.171875 163.328125 192.253906 163.074219 C 192.292969 162.945312 192.332031 162.824219 192.359375 162.660156 C 192.386719 162.496094 192.5 162.324219 192.28125 161.769531 C 192.109375 161.34375 191.957031 161.242188 191.828125 161.109375 C 191.699219 160.980469 191.578125 160.875 191.453125 160.769531 C 191.199219 160.550781 190.925781 160.332031 190.671875 160.105469 C 190.167969 159.65625 189.945312 159.113281 189.960938 159.355469 C 189.921875 158.839844 189.957031 158.5625 189.886719 158.066406 C 189.816406 157.570312 189.601562 157.0625 189.273438 156.496094 C 188.882812 155.824219 188.121094 154.773438 187.519531 153.746094 C 187.40625 153.554688 187.367188 153.441406 187.277344 153.261719 C 187.527344 153.289062 187.785156 153.320312 188.152344 153.226562 C 187.667969 153.351562 187.851562 153.234375 188.097656 153.320312 C 188.339844 153.40625 188.714844 153.566406 189.132812 153.726562 C 189.972656 154.050781 191.011719 154.554688 192.34375 154.113281 C 192.132812 154.183594 192.46875 154.125 193.007812 154.203125 C 193.546875 154.28125 194.304688 154.398438 195.191406 154.363281 C 196.800781 154.308594 198.824219 153.605469 200.777344 151.683594 C 200.996094 151.707031 201.113281 151.691406 201.398438 151.792969 C 201.648438 151.878906 201.832031 151.996094 201.90625 152.078125 C 201.980469 152.15625 202.003906 152.15625 202.003906 152.371094 C 202.003906 153.453125 202.003906 156.070312 202.078125 158.679688 C 202.113281 159.984375 202.167969 161.285156 202.253906 162.414062 C 202.339844 163.539062 202.425781 164.433594 202.640625 165.179688 C 202.992188 166.394531 203.917969 168.691406 204.730469 172.097656 C 205.523438 175.421875 206.160156 179.699219 205.925781 184.476562 C 205.417969 185.300781 204.058594 187.898438 205.390625 190.660156 C 205.957031 191.824219 206.335938 192.765625 206.679688 193.527344 C 207.027344 194.289062 207.152344 195.027344 208.269531 195.503906 C 208.640625 195.664062 208.792969 195.640625 208.949219 195.644531 C 209.109375 195.648438 209.25 195.644531 209.402344 195.632812 C 209.703125 195.613281 210.035156 195.570312 210.414062 195.515625 C 211.175781 195.402344 212.109375 195.234375 213.078125 195.0625 C 215.007812 194.722656 217.242188 194.367188 217.65625 194.367188 C 218.304688 194.367188 219.113281 194.246094 220.1875 194.070312 C 221.261719 193.894531 222.523438 193.652344 223.765625 193.382812 C 225.007812 193.113281 226.226562 192.816406 227.226562 192.511719 C 227.726562 192.359375 228.171875 192.207031 228.558594 192.042969 C 228.949219 191.878906 229.261719 191.796875 229.695312 191.320312 C 230.242188 190.71875 230.382812 189.875 230.234375 189.171875 C 230.09375 188.46875 229.710938 187.847656 229.171875 187.300781 C 228.144531 186.253906 226.480469 185.5 224.214844 185.273438 C 224.101562 185.226562 222.367188 184.535156 220.433594 183.628906 C 219.4375 183.160156 218.421875 182.648438 217.640625 182.1875 C 216.863281 181.726562 216.316406 181.109375 216.457031 181.359375 C 215.84375 180.261719 214.644531 176.769531 216.199219 166.921875 C 217.019531 161.75 216.867188 156.523438 216.257812 152.089844 C 215.648438 147.660156 214.628906 144.078125 213.464844 141.941406 C 211.585938 138.503906 208.519531 136.765625 207.445312 136.234375 C 206.960938 135.300781 205.628906 133.125 203.140625 132 C 200.761719 130.925781 198.800781 129.199219 195.738281 128.804688 C 194.328125 128.625 193.378906 128.675781 192.703125 128.824219 C 192.507812 128.871094 192.378906 128.933594 192.226562 128.988281 C 191.980469 128.960938 191.242188 128.882812 190.308594 128.621094 C 189.769531 128.46875 189.253906 128.261719 188.992188 128.097656 C 188.902344 128.039062 188.902344 128.039062 188.886719 128.03125 C 188.902344 127.378906 188.992188 126.867188 189.027344 126.230469 C 189.070312 125.535156 188.917969 124.597656 188.375 123.8125 C 187.71875 122.867188 186.832031 122.390625 186.089844 122 C 185.675781 121.785156 185.574219 121.757812 185.316406 121.652344 C 185.195312 121.363281 185.039062 121.019531 184.792969 120.308594 C 184.625 119.828125 184.480469 119.320312 184.394531 118.921875 C 184.3125 118.527344 184.378906 118.199219 184.308594 118.433594 C 184.476562 117.886719 184.707031 117.144531 184.824219 116.347656 C 184.9375 115.550781 185.042969 114.585938 184.324219 113.660156 C 184.65625 114.085938 184.414062 113.824219 184.414062 113.433594 C 184.414062 113.351562 184.433594 113.21875 184.433594 113.121094 C 186.265625 115.371094 189.65625 119.53125 192.285156 122.882812 C 194.089844 125.1875 196.078125 126.613281 198.257812 126.660156 C 200.433594 126.703125 202.328125 125.1875 203.546875 122.832031 C 205.996094 118.117188 205.691406 111.457031 205.6875 111.390625 C 205.703125 111.238281 205.832031 110.109375 205.820312 108.667969 C 205.8125 107.902344 205.765625 107.089844 205.613281 106.3125 C 205.457031 105.535156 205.265625 104.730469 204.46875 104.074219 C 203.726562 103.472656 202.875 103.410156 202.160156 103.464844 C 201.445312 103.515625 200.773438 103.699219 200.167969 103.910156 C 199.296875 104.207031 198.941406 104.417969 198.582031 104.601562 C 198.417969 104.554688 198.300781 104.492188 198.089844 104.472656 C 197.675781 104.4375 197.050781 104.523438 196.558594 104.953125 C 196.070312 105.382812 195.867188 106 195.820312 106.578125 C 195.757812 107.300781 195.890625 108.011719 196.078125 108.726562 C 194.660156 106.746094 193.289062 104.507812 193.039062 103.425781 C 192.097656 99.402344 188.234375 92.976562 184.308594 88.242188 C 184.324219 88.148438 184.300781 87.84375 184.425781 87.539062 C 184.628906 87.0625 185.003906 86.597656 185.460938 86.371094 C 186.820312 85.691406 187.449219 84.441406 187.933594 83.394531 C 188.414062 82.34375 188.855469 81.304688 188.902344 81.242188 C 189.453125 80.511719 189.96875 79.429688 190.550781 77.980469 C 191.136719 76.53125 191.722656 74.789062 192.097656 73.03125 C 192.613281 70.625 191.136719 68.5 189.332031 66.84375 C 187.527344 65.191406 185.21875 63.847656 183.140625 62.964844 C 181.925781 62.457031 180.648438 62.34375 179.40625 62.480469 Z M 180.929688 65.273438 C 181.328125 65.316406 181.710938 65.410156 182.066406 65.5625 C 183.878906 66.332031 185.992188 67.582031 187.457031 68.929688 C 188.925781 70.277344 189.570312 71.574219 189.378906 72.46875 C 189.046875 74.015625 188.507812 75.632812 187.976562 76.953125 C 187.441406 78.273438 186.839844 79.375 186.683594 79.585938 C 186.019531 80.464844 185.8125 81.375 185.410156 82.242188 C 185.011719 83.105469 184.515625 83.746094 184.230469 83.886719 C 183.035156 84.484375 182.289062 85.492188 181.875 86.460938 C 181.464844 87.429688 181.152344 88.289062 181.722656 89.425781 C 181.769531 89.523438 181.832031 89.617188 181.90625 89.703125 C 185.660156 94.140625 189.644531 101.136719 190.335938 104.089844 C 190.875 106.40625 192.695312 108.953125 194.367188 111.183594 C 196.035156 113.414062 197.601562 115.1875 197.601562 115.1875 C 198.042969 115.691406 198.777344 115.808594 199.359375 115.472656 C 199.359375 115.472656 199.902344 115.191406 200.363281 114.589844 C 200.597656 114.289062 200.847656 113.863281 200.894531 113.28125 C 200.941406 112.699219 200.699219 112.03125 200.300781 111.570312 C 200.203125 111.457031 199.589844 110.367188 199.207031 109.3125 C 198.972656 108.65625 198.832031 108.027344 198.742188 107.53125 C 198.945312 107.515625 199.148438 107.460938 199.332031 107.359375 C 199.332031 107.359375 200.164062 106.910156 201.101562 106.585938 C 201.570312 106.425781 202.058594 106.308594 202.390625 106.28125 C 202.726562 106.257812 202.816406 106.34375 202.722656 106.269531 C 202.570312 106.148438 202.796875 106.390625 202.894531 106.882812 C 202.992188 107.378906 203.042969 108.0625 203.050781 108.722656 C 203.0625 110.046875 202.925781 111.277344 202.925781 111.277344 C 202.917969 111.34375 202.917969 111.40625 202.917969 111.472656 C 202.917969 111.472656 202.96875 117.964844 201.097656 121.5625 C 200.152344 123.378906 199.253906 123.902344 198.347656 123.878906 C 197.4375 123.859375 196.050781 123.121094 194.523438 121.175781 C 191.167969 116.894531 184.589844 108.816406 184.589844 108.816406 C 184.097656 108.214844 183.214844 108.125 182.621094 108.617188 C 182.371094 108.820312 182.199219 109.105469 182.132812 109.421875 C 182.132812 109.421875 181.917969 110.484375 181.769531 111.667969 C 181.695312 112.261719 181.644531 112.882812 181.648438 113.476562 C 181.652344 114.066406 181.523438 114.59375 182.148438 115.394531 C 182.015625 115.222656 182.15625 115.464844 182.089844 115.960938 C 182.015625 116.453125 181.832031 117.089844 181.667969 117.625 C 181.429688 118.398438 181.570312 118.921875 181.6875 119.507812 C 181.8125 120.09375 181.992188 120.679688 182.179688 121.230469 C 182.554688 122.332031 182.972656 123.273438 182.972656 123.273438 C 183.121094 123.617188 183.414062 123.890625 183.769531 124.019531 C 183.769531 124.019531 184.253906 124.199219 184.824219 124.496094 C 185.394531 124.796875 186.003906 125.277344 186.101562 125.417969 C 186.304688 125.714844 186.285156 125.691406 186.261719 126.078125 C 186.242188 126.46875 186.101562 127.195312 186.101562 128.199219 C 186.101562 129.296875 186.859375 130.050781 187.519531 130.472656 C 188.183594 130.894531 188.898438 131.140625 189.582031 131.332031 C 190.960938 131.714844 192.277344 131.847656 192.277344 131.847656 C 192.609375 131.878906 192.941406 131.792969 193.21875 131.605469 C 193.207031 131.609375 193.226562 131.597656 193.339844 131.570312 C 193.597656 131.515625 194.234375 131.441406 195.40625 131.59375 C 197.515625 131.867188 199.21875 133.304688 202.011719 134.5625 C 203.972656 135.449219 205.140625 137.851562 205.140625 137.851562 C 205.285156 138.175781 205.542969 138.433594 205.867188 138.574219 C 205.867188 138.574219 209.300781 140.128906 211.027344 143.292969 C 211.859375 144.824219 212.925781 148.285156 213.503906 152.484375 C 214.078125 156.679688 214.21875 161.664062 213.453125 166.492188 C 211.84375 176.65625 212.976562 180.828125 214.03125 182.730469 C 214.585938 183.730469 215.324219 184.066406 216.234375 184.605469 C 217.144531 185.144531 218.21875 185.683594 219.265625 186.175781 C 221.355469 187.15625 223.324219 187.9375 223.324219 187.9375 C 223.457031 187.988281 223.59375 188.023438 223.734375 188.03125 C 225.644531 188.179688 226.734375 188.804688 227.199219 189.273438 C 227.316406 189.394531 227.308594 189.429688 227.359375 189.511719 C 227.117188 189.605469 226.820312 189.714844 226.433594 189.832031 C 225.550781 190.097656 224.386719 190.390625 223.191406 190.652344 C 221.996094 190.910156 220.769531 191.144531 219.753906 191.308594 C 218.734375 191.476562 217.855469 191.566406 217.671875 191.566406 C 216.417969 191.566406 214.527344 191.960938 212.601562 192.304688 C 211.640625 192.476562 210.714844 192.640625 210.027344 192.738281 C 209.808594 192.769531 209.675781 192.785156 209.515625 192.800781 C 209.433594 192.691406 209.351562 192.597656 209.246094 192.363281 C 208.945312 191.703125 208.535156 190.691406 207.929688 189.4375 C 207.195312 187.914062 208.5 185.65625 208.5 185.65625 C 208.640625 185.449219 208.722656 185.207031 208.734375 184.957031 C 209.035156 179.699219 208.324219 175.042969 207.46875 171.445312 C 206.609375 167.851562 205.574219 165.1875 205.347656 164.398438 C 205.273438 164.144531 205.140625 163.257812 205.058594 162.207031 C 204.984375 161.152344 204.925781 159.882812 204.890625 158.605469 C 204.816406 156.046875 204.816406 153.457031 204.816406 152.375 C 204.816406 151.5 204.453125 150.6875 203.949219 150.15625 C 203.445312 149.625 202.863281 149.335938 202.335938 149.152344 C 201.289062 148.785156 200.328125 148.800781 200.328125 148.800781 C 199.925781 148.800781 199.542969 148.972656 199.277344 149.277344 C 197.570312 151.203125 196.265625 151.523438 195.097656 151.566406 C 194.511719 151.585938 193.960938 151.507812 193.40625 151.429688 C 192.847656 151.351562 192.296875 151.179688 191.464844 151.457031 C 191.550781 151.429688 190.875 151.398438 190.152344 151.113281 C 189.789062 150.976562 189.417969 150.8125 189.027344 150.675781 C 188.640625 150.542969 188.300781 150.304688 187.484375 150.511719 C 187.761719 150.441406 187.558594 150.46875 187.027344 150.355469 C 186.496094 150.242188 185.402344 150.226562 184.644531 150.90625 C 184.160156 151.335938 184.035156 151.945312 184.042969 152.347656 C 184.046875 152.753906 184.136719 153.0625 184.242188 153.371094 C 184.453125 153.984375 184.769531 154.566406 185.117188 155.160156 C 185.808594 156.34375 186.675781 157.585938 186.867188 157.910156 C 187.121094 158.347656 187.117188 158.378906 187.128906 158.46875 C 187.140625 158.558594 187.132812 158.90625 187.179688 159.558594 C 187.28125 160.96875 188.183594 161.628906 188.824219 162.203125 C 189.050781 162.40625 189.230469 162.554688 189.417969 162.703125 C 189.402344 162.738281 189.398438 162.75 189.386719 162.78125 C 189.179688 163.273438 188.867188 163.933594 188.550781 164.585938 C 187.917969 165.882812 187.253906 167.144531 187.253906 167.144531 C 187.054688 167.527344 187.042969 167.980469 187.222656 168.378906 C 191.074219 176.820312 195.332031 189.902344 195.332031 189.902344 C 195.378906 190.046875 195.449219 190.179688 195.539062 190.304688 C 199.367188 195.488281 200.589844 200.519531 204.046875 208.613281 C 205.800781 212.714844 207.523438 215.425781 208.839844 217.128906 C 210.15625 218.832031 211.167969 219.605469 211.167969 219.605469 C 211.222656 219.644531 211.28125 219.683594 211.347656 219.71875 C 213.710938 220.976562 215.007812 222.445312 216.40625 224.128906 C 217.804688 225.8125 219.28125 227.734375 221.816406 229.40625 C 224.046875 230.878906 225.382812 232.203125 226.023438 233.210938 C 226.660156 234.214844 226.644531 234.757812 226.457031 235.207031 C 226.355469 235.457031 225.421875 236.390625 224.132812 236.925781 C 222.847656 237.460938 221.28125 237.703125 220.132812 237.453125 C 219.746094 237.371094 218.800781 236.90625 217.769531 236.171875 C 216.742188 235.441406 215.582031 234.472656 214.472656 233.441406 C 212.246094 231.386719 210.128906 228.996094 209.507812 228.046875 C 208.886719 227.097656 208.273438 225.382812 207.882812 223.957031 C 207.496094 222.53125 207.300781 221.40625 207.300781 221.40625 C 207.269531 221.234375 207.207031 221.070312 207.117188 220.917969 C 204.011719 215.859375 199.859375 210.511719 196.328125 206.1875 C 194.5625 204.027344 192.957031 202.121094 191.722656 200.648438 C 190.488281 199.171875 189.566406 198.019531 189.433594 197.804688 C 189.296875 197.597656 188.765625 196.472656 188.222656 195.140625 C 187.675781 193.808594 187.050781 192.1875 186.457031 190.621094 C 185.277344 187.492188 184.234375 184.582031 184.234375 184.582031 C 184.230469 184.566406 184.222656 184.550781 184.21875 184.535156 C 181.441406 177.554688 173.589844 168.070312 168.917969 164.59375 C 165.097656 161.746094 163.726562 157.226562 161.851562 154.222656 C 161.105469 153.03125 160.449219 151.46875 159.996094 150.066406 C 159.542969 148.660156 159.3125 147.3125 159.3125 146.960938 C 159.3125 145.976562 158.78125 145.046875 158.351562 144.667969 C 157.921875 144.285156 157.867188 144.304688 157.726562 144.050781 C 157.8125 144.203125 157.589844 143.578125 157.472656 142.890625 C 157.359375 142.207031 157.257812 141.355469 157.167969 140.53125 C 156.992188 138.882812 156.890625 137.363281 156.890625 137.363281 C 156.835938 136.589844 156.171875 136.007812 155.398438 136.058594 C 155.359375 136.0625 155.324219 136.066406 155.292969 136.070312 C 155.292969 136.070312 154.191406 136.230469 153.117188 136.277344 C 152.832031 136.289062 152.640625 136.269531 152.394531 136.257812 C 152.425781 136.15625 152.4375 136.097656 152.480469 135.984375 C 152.746094 135.214844 153.128906 134.222656 153.523438 133.265625 C 154.300781 131.34375 155.109375 129.519531 155.109375 129.519531 C 155.402344 128.859375 155.144531 128.085938 154.515625 127.730469 C 154.515625 127.730469 153.398438 127.113281 152.035156 125.597656 C 151.855469 125.398438 151.691406 124.3125 151.890625 123.199219 C 152.089844 122.082031 152.464844 121.125 152.464844 121.125 C 152.558594 120.890625 152.582031 120.628906 152.542969 120.375 C 152.542969 120.375 151.878906 116.5625 151.554688 113.308594 C 151.191406 109.691406 149.804688 107.183594 149.804688 107.183594 C 149.425781 106.503906 148.574219 106.261719 147.898438 106.636719 C 147.808594 106.6875 147.722656 106.75 147.644531 106.820312 C 147.644531 106.820312 145.710938 108.539062 143.660156 110.507812 C 142.636719 111.492188 141.578125 112.539062 140.699219 113.484375 C 139.820312 114.429688 139.148438 115.140625 138.730469 116.007812 C 138.023438 117.492188 138.015625 119.25 137.820312 121.152344 C 137.625 123.050781 137.320312 124.996094 136.742188 126.15625 C 135.621094 128.398438 133.386719 128.058594 133.386719 128.058594 C 133.234375 128.039062 133.085938 128.050781 132.933594 128.085938 C 132.933594 128.085938 132.324219 128.222656 131.691406 128.320312 C 131.6875 128.320312 131.683594 128.320312 131.679688 128.320312 C 131.78125 127.910156 131.90625 127.464844 131.90625 127.464844 C 131.984375 127.226562 131.996094 126.976562 131.945312 126.738281 C 131.945312 126.738281 131.808594 126.121094 131.726562 125.4375 C 131.6875 125.09375 131.65625 124.738281 131.660156 124.484375 C 131.660156 124.371094 131.683594 124.289062 131.695312 124.242188 C 131.757812 124.164062 132.0625 123.8125 132.390625 123.535156 C 132.746094 123.230469 133.050781 123.015625 133.050781 123.015625 C 133.382812 122.78125 133.59375 122.417969 133.636719 122.015625 C 133.636719 122.015625 134.214844 116.542969 134.386719 114.394531 C 134.421875 114.007812 135.125 112.480469 136.15625 111.003906 C 137.191406 109.527344 138.488281 107.964844 139.488281 106.757812 C 141.636719 104.15625 144.085938 99.914062 145.730469 95.335938 C 147.1875 91.265625 150.265625 87.4375 156.597656 85.800781 C 163.394531 84.039062 166.019531 82.992188 166.019531 82.992188 C 166.339844 82.867188 166.597656 82.628906 166.75 82.320312 C 166.800781 82.300781 166.804688 82.296875 166.878906 82.277344 C 167.191406 82.195312 167.558594 82.175781 167.558594 82.175781 C 168.207031 82.144531 168.75 81.679688 168.871094 81.046875 C 168.871094 81.046875 169.40625 78.339844 170.183594 75.417969 C 170.570312 73.957031 171.027344 72.445312 171.484375 71.222656 C 171.941406 70 172.53125 69.039062 172.628906 68.945312 C 173.507812 68.117188 175.199219 66.855469 177.007812 66.050781 C 178.34375 65.457031 179.722656 65.136719 180.929688 65.273438 Z M 180.929688 65.273438 " fill-opacity="1" fill-rule="nonzero"/></g><path fill="#000000" d="M 182.96875 88.792969 C 186.859375 93.390625 190.867188 100.226562 191.691406 103.761719 C 192.519531 107.296875 198.648438 114.253906 198.648438 114.253906 C 198.648438 114.253906 200.0625 113.425781 199.238281 112.484375 C 198.410156 111.539062 197.117188 108.121094 197.234375 106.707031 C 197.351562 105.292969 198.648438 106.121094 198.648438 106.121094 C 198.648438 106.121094 202.300781 104.117188 203.601562 105.175781 C 204.898438 106.238281 204.308594 111.425781 204.308594 111.425781 C 204.308594 111.425781 204.496094 118.03125 202.328125 122.199219 C 200.160156 126.371094 196.738281 126.285156 193.410156 122.035156 C 190.074219 117.78125 183.492188 109.695312 183.492188 109.695312 C 183.492188 109.695312 182.65625 113.777344 183.242188 114.53125 C 183.824219 115.28125 183.324219 116.949219 182.992188 118.03125 C 182.65625 119.117188 184.242188 122.699219 184.242188 122.699219 C 184.242188 122.699219 186.496094 123.535156 187.242188 124.617188 C 187.992188 125.699219 187.492188 126.453125 187.492188 128.199219 C 187.492188 129.949219 192.40625 130.453125 192.40625 130.453125 C 192.40625 130.453125 192.992188 129.867188 195.574219 130.203125 C 198.15625 130.539062 199.992188 132.121094 202.574219 133.289062 C 205.160156 134.457031 206.410156 137.289062 206.410156 137.289062 C 206.410156 137.289062 210.242188 138.957031 212.246094 142.621094 C 214.246094 146.289062 216.414062 156.710938 214.828125 166.714844 C 213.242188 176.71875 214.410156 180.550781 215.246094 182.050781 C 216.078125 183.550781 223.832031 186.636719 223.832031 186.636719 C 228.167969 186.972656 229.5 189.46875 228.664062 190.390625 C 227.832031 191.304688 219.332031 192.972656 217.664062 192.972656 C 215.996094 192.972656 209.414062 194.472656 208.828125 194.222656 C 208.242188 193.972656 207.828125 192.472656 206.664062 190.054688 C 205.492188 187.632812 207.328125 184.882812 207.328125 184.882812 C 207.914062 174.714844 204.578125 166.796875 203.992188 164.792969 C 203.410156 162.789062 203.410156 154.539062 203.410156 152.375 C 203.410156 150.207031 200.324219 150.207031 200.324219 150.207031 C 196.492188 154.542969 193.15625 152.375 191.90625 152.789062 C 190.65625 153.207031 188.488281 151.707031 187.824219 151.875 C 187.15625 152.042969 186.324219 151.289062 185.570312 151.957031 C 184.820312 152.621094 187.488281 156.207031 188.070312 157.207031 C 188.65625 158.210938 188.488281 158.292969 188.570312 159.460938 C 188.652344 160.628906 190.820312 161.878906 190.988281 162.292969 C 191.15625 162.710938 188.488281 167.792969 188.488281 167.792969 C 192.40625 176.378906 196.65625 189.464844 196.65625 189.464844 C 200.660156 194.882812 201.910156 200.050781 205.324219 208.050781 C 208.742188 216.054688 211.996094 218.472656 211.996094 218.472656 C 217.164062 221.222656 217.914062 225.144531 222.582031 228.222656 C 227.246094 231.308594 228.5 233.894531 227.75 235.726562 C 227.003906 237.5625 222.914062 239.480469 219.832031 238.8125 C 216.746094 238.148438 209.910156 231.226562 208.324219 228.808594 C 206.738281 226.390625 205.90625 221.640625 205.90625 221.640625 C 199.820312 211.722656 189.398438 200.386719 188.234375 198.550781 C 187.070312 196.714844 182.902344 185.046875 182.902344 185.046875 C 180.320312 178.546875 172.316406 168.875 168.0625 165.707031 C 163.8125 162.542969 162.3125 157.625 160.644531 154.957031 C 158.976562 152.289062 157.894531 148.371094 157.894531 146.953125 C 157.894531 145.535156 157.0625 145.785156 156.476562 144.703125 C 155.890625 143.621094 155.476562 137.449219 155.476562 137.449219 C 155.476562 137.449219 150.890625 138.113281 150.722656 137.199219 C 150.554688 136.285156 153.808594 128.949219 153.808594 128.949219 C 153.808594 128.949219 152.476562 128.195312 150.976562 126.527344 C 149.476562 124.863281 151.144531 120.609375 151.144531 120.609375 C 151.144531 120.609375 150.476562 116.777344 150.140625 113.441406 C 149.808594 110.109375 148.558594 107.855469 148.558594 107.855469 C 148.558594 107.855469 140.890625 114.695312 139.96875 116.609375 C 139.054688 118.527344 139.472656 123.777344 137.96875 126.777344 C 136.46875 129.777344 133.214844 129.445312 133.214844 129.445312 C 133.214844 129.445312 130.632812 130.03125 130.214844 129.695312 C 129.796875 129.359375 130.550781 127.027344 130.550781 127.027344 C 130.550781 127.027344 129.964844 124.359375 130.382812 123.609375 C 130.800781 122.859375 132.21875 121.863281 132.21875 121.863281 C 132.21875 121.863281 132.800781 116.359375 132.96875 114.277344 C 133.136719 112.191406 136.386719 108.273438 138.390625 105.859375 C 140.390625 103.4375 142.804688 99.273438 144.390625 94.855469 C 145.976562 90.4375 149.476562 86.1875 156.226562 84.433594 C 162.980469 82.6875 165.480469 81.683594 165.480469 81.683594 C 165.5625 80.851562 167.484375 80.769531 167.484375 80.769531 C 167.484375 80.769531 169.648438 69.808594 171.652344 67.925781 C 173.652344 66.035156 178.726562 62.621094 182.617188 64.269531 C 186.507812 65.921875 191.457031 69.457031 190.75 72.757812 C 190.042969 76.0625 188.507812 79.476562 187.800781 80.421875 C 187.09375 81.367188 186.507812 84.3125 184.855469 85.136719 C 183.199219 85.964844 182.613281 88.085938 182.96875 88.792969 Z M 182.96875 88.792969 " fill-opacity="1" fill-rule="nonzero"/><path fill="#ff0000" d="M 146.480469 104.351562 C 146.480469 104.351562 144.476562 104.230469 142.058594 102.347656 C 142.058594 102.347656 144.242188 98.339844 145.300781 95.390625 C 146.363281 92.445312 149.070312 87.609375 156.441406 86.140625 C 156.441406 86.140625 151.84375 89.261719 150.132812 92.152344 C 148.425781 95.039062 148.363281 104.292969 148.363281 104.292969 C 148.363281 104.292969 147.246094 96.6875 148.421875 92.621094 C 148.421875 92.621094 146.535156 95.273438 146.300781 96.925781 C 146.0625 98.574219 143.765625 102.464844 143.765625 102.464844 Z M 146.480469 104.351562 " fill-opacity="1" fill-rule="nonzero"/><path fill="#ff0000" d="M 163.5625 129.121094 C 170.066406 125.703125 183.152344 124.785156 183.152344 124.785156 C 183.152344 124.785156 172.414062 128.636719 166.640625 131.996094 C 160.867188 135.355469 154.085938 136.007812 153.378906 135.59375 C 152.671875 135.179688 155.5625 127.929688 155.5625 127.929688 C 155.5625 127.929688 152.671875 126.222656 152.140625 125.277344 C 151.609375 124.335938 152.496094 120.503906 152.496094 120.503906 C 152.140625 113.078125 150.046875 107.449219 150.046875 107.449219 C 150.046875 107.449219 154.3125 112.113281 155.890625 116.867188 L 158.394531 115.699219 L 157.144531 124.367188 C 157.144531 124.367188 166.894531 119.53125 172.480469 119.117188 C 172.480469 119.117188 165.0625 124.953125 163.5625 129.121094 Z M 163.5625 129.121094 " fill-opacity="1" fill-rule="nonzero"/><path fill="#ff0000" d="M 191.101562 109.007812 C 189.15625 110.835938 186.796875 111.660156 186.796875 111.660156 C 186.796875 111.660156 188.152344 112.132812 193.222656 109.183594 C 193.222656 109.183594 190.863281 106.121094 190.570312 104.824219 C 190.273438 103.527344 186.855469 95.335938 181.960938 91.445312 C 181.960938 91.445312 187.621094 99.871094 188.742188 103.054688 C 189.863281 106.238281 189.566406 107.183594 191.101562 109.007812 Z M 191.101562 109.007812 " fill-opacity="1" fill-rule="nonzero"/><path fill="#ff0000" d="M 189.152344 162.960938 C 185.484375 169.296875 178.984375 174.796875 178.984375 174.796875 C 178.984375 174.796875 171.566406 165.714844 168.5625 164.214844 C 165.5625 162.714844 163.0625 154.960938 161.476562 153.375 C 159.890625 151.789062 159.472656 145.703125 159.472656 145.703125 C 159.472656 145.703125 161.222656 151.371094 162.976562 152.542969 C 164.722656 153.710938 166.390625 160.542969 168.726562 161.457031 C 171.058594 162.375 179.308594 171.046875 179.308594 171.046875 C 179.308594 171.046875 185.066406 167.878906 189.152344 162.960938 Z M 189.152344 162.960938 " fill-opacity="1" fill-rule="nonzero"/><path fill="#ff0000" d="M 196.816406 151.390625 C 202.773438 146.085938 204.773438 137.300781 204.773438 137.300781 C 202.476562 133.355469 193.929688 131.347656 192.394531 131.820312 C 190.863281 132.292969 186.382812 130.644531 186.382812 130.644531 C 186.382812 130.644531 190.746094 134.066406 192.691406 133.828125 C 194.636719 133.589844 201.828125 137.304688 201.828125 137.304688 C 201.828125 137.304688 201.0625 146.023438 196.816406 151.390625 Z M 196.816406 151.390625 " fill-opacity="1" fill-rule="nonzero"/><path fill="#ffffff" d="M 210.042969 64.757812 C 203.390625 64.757812 197.976562 70.171875 197.976562 76.820312 C 197.976562 83.472656 203.390625 88.886719 210.042969 88.886719 C 216.691406 88.886719 222.105469 83.472656 222.105469 76.820312 C 222.105469 70.171875 216.691406 64.757812 210.042969 64.757812 Z M 210.042969 66.738281 C 215.621094 66.738281 220.125 71.242188 220.125 76.820312 C 220.125 82.398438 215.621094 86.902344 210.042969 86.902344 C 204.460938 86.902344 199.957031 82.402344 199.957031 76.820312 C 199.957031 71.238281 204.460938 66.738281 210.042969 66.738281 Z M 210.042969 66.738281 " fill-opacity="1" fill-rule="nonzero"/><path fill="#000000" d="M 221.113281 76.820312 C 221.113281 82.9375 216.15625 87.894531 210.042969 87.894531 C 203.925781 87.894531 198.96875 82.9375 198.96875 76.820312 C 198.96875 70.703125 203.925781 65.746094 210.042969 65.746094 C 216.15625 65.746094 221.113281 70.703125 221.113281 76.820312 Z M 221.113281 76.820312 " fill-opacity="1" fill-rule="nonzero"/><path fill="#ff0000" d="M 217.296875 70.421875 C 218.179688 71.914062 218.648438 73.617188 218.648438 75.351562 C 218.648438 80.695312 214.316406 85.027344 208.976562 85.027344 C 206.199219 85.027344 203.558594 83.832031 201.71875 81.75 C 203.460938 84.691406 206.625 86.492188 210.042969 86.492188 C 215.382812 86.492188 219.714844 82.160156 219.714844 76.816406 C 219.714844 74.464844 218.855469 72.191406 217.296875 70.421875 Z M 217.296875 70.421875 " fill-opacity="1" fill-rule="nonzero"/><g fill="#000000" fill-opacity="1"><g transform="translate(78.264824, 285.819826)"><g><path d="M 24.46875 0 L 24.46875 -5.671875 L 8.515625 -5.671875 L 8.515625 -24.8125 L 0.171875 -24.8125 L 0.171875 -19.140625 L 2.84375 -19.140625 L 2.84375 0 Z M 24.46875 0 "/></g></g></g><g fill="#000000" fill-opacity="1"><g transform="translate(110.171379, 285.819826)"><g><path d="M 24.46875 0 L 24.46875 -5.671875 L 8.515625 -5.671875 L 8.515625 -9.578125 L 20.921875 -9.578125 L 20.921875 -15.25 L 8.515625 -15.25 L 8.515625 -19.140625 L 24.46875 -19.140625 L 24.46875 -24.8125 L 0.171875 -24.8125 L 0.171875 -19.140625 L 2.84375 -19.140625 L 2.84375 0 Z M 24.46875 0 "/></g></g></g><g fill="#000000" fill-opacity="1"><g transform="translate(143.495891, 285.819826)"><g><path d="M 15.640625 0 L 15.640625 -19.140625 L 25.421875 -19.140625 L 25.421875 -24.8125 L 0.171875 -24.8125 L 0.171875 -19.140625 L 9.96875 -19.140625 L 9.96875 0 Z M 15.640625 0 "/></g></g></g><g fill="#000000" fill-opacity="1"><g transform="translate(176.182321, 285.819826)"><g><path d="M 21.796875 0 L 25.34375 -3.546875 L 25.34375 -11.703125 L 21.796875 -15.25 L 7.4375 -15.25 L 7.4375 -19.140625 L 25.34375 -19.140625 L 25.34375 -24.8125 L 5.3125 -24.8125 L 1.765625 -21.265625 L 1.765625 -13.125 L 5.3125 -9.578125 L 19.671875 -9.578125 L 19.671875 -5.671875 L 1.765625 -5.671875 L 1.765625 0 Z M 21.796875 0 "/></g></g></g><g fill="#000000" fill-opacity="1"><g transform="translate(210.393058, 285.819826)"><g/></g></g><g fill="#000000" fill-opacity="1"><g transform="translate(231.664876, 285.819826)"><g><path d="M 23.21875 0 L 26.765625 -3.546875 L 26.765625 -15.25 L 15.0625 -15.25 L 15.0625 -9.578125 L 21.09375 -9.578125 L 21.09375 -5.671875 L 7.4375 -5.671875 L 7.4375 -19.140625 L 24.109375 -19.140625 L 24.109375 -24.8125 L 5.3125 -24.8125 L 1.765625 -21.265625 L 1.765625 -3.546875 L 5.3125 0 Z M 23.21875 0 "/></g></g></g><g fill="#000000" fill-opacity="1"><g transform="translate(267.293582, 285.819826)"><g><path d="M 24.109375 0 L 27.65625 -3.546875 L 27.65625 -21.265625 L 24.109375 -24.8125 L 5.3125 -24.8125 L 1.765625 -21.265625 L 1.765625 -3.546875 L 5.3125 0 Z M 21.984375 -5.671875 L 7.4375 -5.671875 L 7.4375 -19.140625 L 21.984375 -19.140625 Z M 21.984375 -5.671875 "/></g></g></g><g fill="#ff0000" fill-opacity="1"><g transform="translate(127.616121, 309.17626)"><g><path d="M 3.171875 0.0625 C 2.628906 0.0625 2.113281 -0.0195312 1.625 -0.1875 C 1.132812 -0.363281 0.753906 -0.59375 0.484375 -0.875 L 0.78125 -1.46875 C 1.039062 -1.207031 1.382812 -0.992188 1.8125 -0.828125 C 2.25 -0.671875 2.703125 -0.59375 3.171875 -0.59375 C 3.816406 -0.59375 4.300781 -0.707031 4.625 -0.9375 C 4.945312 -1.175781 5.109375 -1.484375 5.109375 -1.859375 C 5.109375 -2.148438 5.019531 -2.378906 4.84375 -2.546875 C 4.664062 -2.722656 4.445312 -2.859375 4.1875 -2.953125 C 3.9375 -3.046875 3.585938 -3.148438 3.140625 -3.265625 C 2.597656 -3.398438 2.160156 -3.53125 1.828125 -3.65625 C 1.503906 -3.78125 1.226562 -3.972656 1 -4.234375 C 0.769531 -4.492188 0.65625 -4.847656 0.65625 -5.296875 C 0.65625 -5.660156 0.75 -5.992188 0.9375 -6.296875 C 1.132812 -6.597656 1.429688 -6.835938 1.828125 -7.015625 C 2.234375 -7.191406 2.734375 -7.28125 3.328125 -7.28125 C 3.734375 -7.28125 4.132812 -7.222656 4.53125 -7.109375 C 4.925781 -6.992188 5.269531 -6.835938 5.5625 -6.640625 L 5.296875 -6.03125 C 4.992188 -6.226562 4.671875 -6.375 4.328125 -6.46875 C 3.984375 -6.570312 3.648438 -6.625 3.328125 -6.625 C 2.691406 -6.625 2.210938 -6.503906 1.890625 -6.265625 C 1.566406 -6.023438 1.40625 -5.710938 1.40625 -5.328125 C 1.40625 -5.035156 1.492188 -4.800781 1.671875 -4.625 C 1.847656 -4.445312 2.066406 -4.3125 2.328125 -4.21875 C 2.597656 -4.125 2.957031 -4.023438 3.40625 -3.921875 C 3.9375 -3.785156 4.363281 -3.65625 4.6875 -3.53125 C 5.007812 -3.40625 5.285156 -3.210938 5.515625 -2.953125 C 5.742188 -2.691406 5.859375 -2.34375 5.859375 -1.90625 C 5.859375 -1.539062 5.757812 -1.207031 5.5625 -0.90625 C 5.363281 -0.613281 5.0625 -0.378906 4.65625 -0.203125 C 4.25 -0.0234375 3.753906 0.0625 3.171875 0.0625 Z M 3.171875 0.0625 "/></g></g></g><g fill="#ff0000" fill-opacity="1"><g transform="translate(142.211283, 309.17626)"><g><path d="M 7.203125 -7.21875 L 7.203125 0 L 6.453125 0 L 6.453125 -3.328125 L 1.9375 -3.328125 L 1.9375 0 L 1.171875 0 L 1.171875 -7.21875 L 1.9375 -7.21875 L 1.9375 -4 L 6.453125 -4 L 6.453125 -7.21875 Z M 7.203125 -7.21875 "/></g></g></g><g fill="#ff0000" fill-opacity="1"><g transform="translate(158.848335, 309.17626)"><g><path d="M 4.328125 0.0625 C 3.617188 0.0625 2.972656 -0.09375 2.390625 -0.40625 C 1.804688 -0.726562 1.347656 -1.164062 1.015625 -1.71875 C 0.691406 -2.28125 0.53125 -2.910156 0.53125 -3.609375 C 0.53125 -4.304688 0.691406 -4.929688 1.015625 -5.484375 C 1.347656 -6.046875 1.804688 -6.484375 2.390625 -6.796875 C 2.972656 -7.117188 3.617188 -7.28125 4.328125 -7.28125 C 5.046875 -7.28125 5.691406 -7.117188 6.265625 -6.796875 C 6.835938 -6.484375 7.285156 -6.046875 7.609375 -5.484375 C 7.941406 -4.929688 8.109375 -4.304688 8.109375 -3.609375 C 8.109375 -2.910156 7.941406 -2.28125 7.609375 -1.71875 C 7.285156 -1.164062 6.835938 -0.726562 6.265625 -0.40625 C 5.691406 -0.09375 5.046875 0.0625 4.328125 0.0625 Z M 4.328125 -0.625 C 4.898438 -0.625 5.414062 -0.75 5.875 -1 C 6.332031 -1.257812 6.691406 -1.617188 6.953125 -2.078125 C 7.222656 -2.535156 7.359375 -3.046875 7.359375 -3.609375 C 7.359375 -4.171875 7.222656 -4.679688 6.953125 -5.140625 C 6.691406 -5.597656 6.332031 -5.953125 5.875 -6.203125 C 5.414062 -6.460938 4.898438 -6.59375 4.328125 -6.59375 C 3.753906 -6.59375 3.234375 -6.460938 2.765625 -6.203125 C 2.304688 -5.953125 1.945312 -5.597656 1.6875 -5.140625 C 1.425781 -4.679688 1.296875 -4.171875 1.296875 -3.609375 C 1.296875 -3.046875 1.425781 -2.535156 1.6875 -2.078125 C 1.945312 -1.617188 2.304688 -1.257812 2.765625 -1 C 3.234375 -0.75 3.753906 -0.625 4.328125 -0.625 Z M 4.328125 -0.625 "/></g></g></g><g fill="#ff0000" fill-opacity="1"><g transform="translate(175.753509, 309.17626)"><g><path d="M 3.875 -7.21875 C 4.800781 -7.21875 5.523438 -7 6.046875 -6.5625 C 6.566406 -6.125 6.828125 -5.519531 6.828125 -4.75 C 6.828125 -3.976562 6.566406 -3.375 6.046875 -2.9375 C 5.523438 -2.5 4.800781 -2.28125 3.875 -2.28125 L 1.9375 -2.28125 L 1.9375 0 L 1.171875 0 L 1.171875 -7.21875 Z M 3.859375 -2.953125 C 4.566406 -2.953125 5.109375 -3.109375 5.484375 -3.421875 C 5.867188 -3.734375 6.0625 -4.175781 6.0625 -4.75 C 6.0625 -5.332031 5.867188 -5.78125 5.484375 -6.09375 C 5.109375 -6.40625 4.566406 -6.5625 3.859375 -6.5625 L 1.9375 -6.5625 L 1.9375 -2.953125 Z M 3.859375 -2.953125 "/></g></g></g><g fill="#ff0000" fill-opacity="1"><g transform="translate(191.410868, 309.17626)"><g/></g></g><g fill="#ff0000" fill-opacity="1"><g transform="translate(202.365701, 309.17626)"><g><path d="M 7.203125 -7.21875 L 7.203125 0 L 6.578125 0 L 1.9375 -5.859375 L 1.9375 0 L 1.171875 0 L 1.171875 -7.21875 L 1.8125 -7.21875 L 6.453125 -1.359375 L 6.453125 -7.21875 Z M 7.203125 -7.21875 "/></g></g></g><g fill="#ff0000" fill-opacity="1"><g transform="translate(219.002755, 309.17626)"><g><path d="M 4.328125 0.0625 C 3.617188 0.0625 2.972656 -0.09375 2.390625 -0.40625 C 1.804688 -0.726562 1.347656 -1.164062 1.015625 -1.71875 C 0.691406 -2.28125 0.53125 -2.910156 0.53125 -3.609375 C 0.53125 -4.304688 0.691406 -4.929688 1.015625 -5.484375 C 1.347656 -6.046875 1.804688 -6.484375 2.390625 -6.796875 C 2.972656 -7.117188 3.617188 -7.28125 4.328125 -7.28125 C 5.046875 -7.28125 5.691406 -7.117188 6.265625 -6.796875 C 6.835938 -6.484375 7.285156 -6.046875 7.609375 -5.484375 C 7.941406 -4.929688 8.109375 -4.304688 8.109375 -3.609375 C 8.109375 -2.910156 7.941406 -2.28125 7.609375 -1.71875 C 7.285156 -1.164062 6.835938 -0.726562 6.265625 -0.40625 C 5.691406 -0.09375 5.046875 0.0625 4.328125 0.0625 Z M 4.328125 -0.625 C 4.898438 -0.625 5.414062 -0.75 5.875 -1 C 6.332031 -1.257812 6.691406 -1.617188 6.953125 -2.078125 C 7.222656 -2.535156 7.359375 -3.046875 7.359375 -3.609375 C 7.359375 -4.171875 7.222656 -4.679688 6.953125 -5.140625 C 6.691406 -5.597656 6.332031 -5.953125 5.875 -6.203125 C 5.414062 -6.460938 4.898438 -6.59375 4.328125 -6.59375 C 3.753906 -6.59375 3.234375 -6.460938 2.765625 -6.203125 C 2.304688 -5.953125 1.945312 -5.597656 1.6875 -5.140625 C 1.425781 -4.679688 1.296875 -4.171875 1.296875 -3.609375 C 1.296875 -3.046875 1.425781 -2.535156 1.6875 -2.078125 C 1.945312 -1.617188 2.304688 -1.257812 2.765625 -1 C 3.234375 -0.75 3.753906 -0.625 4.328125 -0.625 Z M 4.328125 -0.625 "/></g></g></g><g fill="#ff0000" fill-opacity="1"><g transform="translate(235.907926, 309.17626)"><g><path d="M 11.09375 -7.21875 L 8.65625 0 L 7.84375 0 L 5.734375 -6.15625 L 3.609375 0 L 2.8125 0 L 0.375 -7.21875 L 1.171875 -7.21875 L 3.25 -1.015625 L 5.40625 -7.21875 L 6.109375 -7.21875 L 8.234375 -0.984375 L 10.359375 -7.21875 Z M 11.09375 -7.21875 "/></g></g></g></svg>